<?xml version="1.0" encoding="UTF-8" standalone="no"?>
<!-- Created with Inkscape (http://www.inkscape.org/) -->

<svg
   width="512"
   height="512"
   viewBox="0 0 135.46667 135.46667"
   version="1.1"
   id="svg1"
   inkscape:version="1.4.2 (ebf0e940, 2025-05-08)"
   sodipodi:docname="icon.svg"
   xml:space="preserve"
   inkscape:export-filename="icon.png"
   inkscape:export-xdpi="96"
   inkscape:export-ydpi="96"
   xmlns:inkscape="http://www.inkscape.org/namespaces/inkscape"
   xmlns:sodipodi="http://sodipodi.sourceforge.net/DTD/sodipodi-0.dtd"
   xmlns:xlink="http://www.w3.org/1999/xlink"
   xmlns="http://www.w3.org/2000/svg"
   xmlns:svg="http://www.w3.org/2000/svg"><sodipodi:namedview
     id="namedview1"
     pagecolor="#ffffff"
     bordercolor="#000000"
     borderopacity="0.25"
     inkscape:showpageshadow="2"
     inkscape:pageopacity="0.0"
     inkscape:pagecheckerboard="0"
     inkscape:deskcolor="#d1d1d1"
     inkscape:document-units="px"
     showgrid="true"
     inkscape:zoom="0.45254834"
     inkscape:cx="172.35728"
     inkscape:cy="156.88932"
     inkscape:window-width="1280"
     inkscape:window-height="671"
     inkscape:window-x="2562"
     inkscape:window-y="29"
     inkscape:window-maximized="0"
     inkscape:current-layer="g22"
     showguides="false"><inkscape:grid
       id="grid1"
       units="px"
       originx="0"
       originy="0"
       spacingx="2.1166667"
       spacingy="2.1166667"
       empcolor="#0099e5"
       empopacity="0.30196078"
       color="#0099e5"
       opacity="0.14901961"
       empspacing="8"
       enabled="true"
       visible="true" /><sodipodi:guide
       position="25.400002,-4.8046875e-06"
       orientation="1,0"
       id="guide33"
       inkscape:locked="false" /><sodipodi:guide
       position="112.18334,4.2333288"
       orientation="1,0"
       id="guide34"
       inkscape:locked="false" /><sodipodi:guide
       position="21.166668,8.4666624"
       orientation="0,-1"
       id="guide35"
       inkscape:locked="false" /><sodipodi:guide
       position="8.4666672,127"
       orientation="0,-1"
       id="guide36"
       inkscape:locked="false" /></sodipodi:namedview><defs
     id="defs1"><linearGradient
       id="linearGradient32"
       inkscape:collect="always"><stop
         style="stop-color:#961bbb;stop-opacity:1"
         offset="0"
         id="stop32" /><stop
         style="stop-color:#ff6439;stop-opacity:1"
         offset="1"
         id="stop33" /></linearGradient><linearGradient
       inkscape:collect="always"
       xlink:href="#linearGradient32"
       id="linearGradient33"
       x1="-2.1166663"
       y1="-488.04333"
       x2="133.35001"
       y2="205.11664"
       gradientUnits="userSpaceOnUse" /></defs><g
     inkscape:label="Layer 1"
     inkscape:groupmode="layer"
     id="layer1"><g
       id="g22"
       transform="matrix(1,0,0,0.19543349,2.1166663,95.38001)"><rect
         style="fill:url(#linearGradient33);fill-opacity:1;fill-rule:evenodd;stroke:none;stroke-width:39.5601;stroke-linecap:butt;stroke-linejoin:bevel;stroke-dasharray:none;stroke-opacity:1;paint-order:stroke markers fill"
         id="rect24"
         width="135.46667"
         height="693.15997"
         x="-2.1166663"
         y="-488.04333"
         rx="33.866665"
         ry="173.29001" /><g
         id="g24"
         transform="translate(-3.3347412e-4,43.319971)"><path
           id="path17"
           style="fill:#f9f9f9;fill-rule:evenodd;stroke-width:13.0642;stroke-linecap:round;paint-order:fill markers stroke"
           d="m 63.984027,52.882024 c -0.492649,0 -0.995366,0.006 -1.508952,0.01654 H 26.39769 v 0.01757 h -0.997355 v 59.267696 c 0,1.10386 -0.153022,2.23649 0.273368,3.6189 0.213195,0.69121 0.675897,1.49668 1.433505,2.02158 0.757608,0.5249 1.655105,0.70901 2.525427,0.70901 H 55.033152 V 111.1069 H 50.122341 V 61.540411 c 1.565153,-0.340251 3.20202,-0.596813 4.910811,-0.769463 v -7.81761 h 2.116667 v 7.649145 c 0.02817,-0.0017 0.05654,-0.0035 0.08475,-0.0052 2.515812,-0.193525 4.765321,-0.290422 6.748942,-0.290422 4.834218,0 8.906252,0.590185 12.216309,1.770951 V 54.28814 C 72.907929,53.406553 69.32287,52.984022 65.481095,52.899077 v -5.16e-4 c -0.494619,-0.0109 -0.993504,-0.01654 -1.49655,-0.01654 z m 43.965273,0.03411 v 59.267696 c 0,1.10846 -0.0352,1.83131 -0.0744,2.11719 H 96.158808 c 0.904242,-1.8912 1.023367,-4.17125 0.03876,-6.30505 -0.967502,-2.09626 -2.059889,-4.19331 -3.267501,-6.29522 -1.182213,-2.105206 -2.420523,-4.144956 -3.717086,-6.116936 -0.765202,-1.19245 -1.516722,-2.245825 -2.273246,-3.341915 4.250965,-4.097 6.892602,-9.73097 6.892602,-15.75201 0,-7.21185 -3.192876,-14.289048 -9.009786,-18.296558 -1.993839,-1.384827 -4.167613,-2.455041 -6.506063,-3.259749 v 8.030001 c 0.820231,0.399745 1.582409,0.844845 2.286166,1.334802 3.87048,2.660956 5.805847,6.724968 5.805847,12.192021 0,6.821721 -3.362798,11.442118 -10.087757,13.861169 0.919239,1.112763 1.959596,2.467261 3.12074,4.063835 1.161144,1.596572 2.34633,3.338145 3.555855,5.225004 1.209525,1.838476 2.370746,3.749876 3.483509,5.733496 1.112763,1.93524 2.104671,3.84613 2.975529,5.73299 H 79.223924 c -0.294939,-0.55884 -0.597543,-1.11758 -0.907438,-1.67639 v 9.10281 H 107.9493 c 0.87032,0 1.76989,-0.18411 2.5275,-0.70901 0.75761,-0.5249 1.2203,-1.33037 1.4335,-2.02158 0.42638,-1.38241 0.27337,-2.51504 0.27337,-3.6189 V 52.916131 Z M 64.636701,68.217006 c -1.93524,0 -3.725261,0.07293 -5.370215,0.218074 v 16.255856 h 3.991487 c 2.225526,0 4.184861,-0.120864 5.878195,-0.362769 1.693336,-0.241905 3.096281,-0.677428 4.209045,-1.30638 1.161144,-0.628954 2.032189,-1.475515 2.612761,-2.539897 0.580572,-1.064382 0.870748,-2.419397 0.870748,-4.064351 0,-1.548192 -0.290176,-2.854242 -0.870748,-3.918624 C 75.377402,71.434533 74.53084,70.587971 73.418077,69.959018 72.353695,69.330065 71.07161,68.894543 69.5718,68.652638 68.071988,68.362352 66.426799,68.217006 64.636701,68.217006 Z m 2.177128,23.803715 c -0.677334,0.04838 -1.257686,0.07235 -1.741496,0.07235 h -1.378727 -4.42712 V 111.1069 h -2.116667 v 7.42642 h 19.05 v -12.73256 c -1.048985,-1.76081 -2.121469,-3.4515 -3.217374,-5.07153 -1.064382,-1.693317 -2.128705,-3.265591 -3.193087,-4.717021 -1.064382,-1.499811 -2.056289,-2.830344 -2.975529,-3.991488 z"
           transform="matrix(1,0,0,5.1168303,-2.1166663,-488.04332)" /><path
           id="rect2"
           style="fill:#f9f9f9;fill-rule:evenodd;stroke-width:16.1898;stroke-linecap:round;paint-order:fill markers stroke"
           d="m 19.049818,31.74998 c -1.172633,0 -2.116667,0.944034 -2.116667,2.116667 v 14.816667 c 0,1.172633 0.944034,2.116667 2.116667,2.116667 H 55.033152 V 31.74998 Z m 38.100001,0 v 19.050001 h 19.05 V 31.74998 Z m 21.166667,0 v 19.050001 h 38.256064 c 1.17263,0 2.11667,-0.944034 2.11667,-2.116667 V 33.866647 c 0,-1.172633 -0.94404,-2.116667 -2.11667,-2.116667 z"
           transform="matrix(1,0,0,5.1168303,-2.1166663,-488.04332)" /><g
           id="g26"
           transform="matrix(1,0,0,0.87129257,0,-244.75361)" /><g
           id="g27"
           transform="matrix(1,0,0,4.4958026,-137.84485,-317.19471)"
           style="fill:#f9f9f9;stroke:#ff0000"><g
             id="g32"
             transform="translate(138.71867,-33.866668)"
             style="fill:#f9f9f9"><path
               id="path26"
               style="baseline-shift:baseline;display:inline;overflow:visible;opacity:1;vector-effect:none;fill:#f9f9f9;fill-rule:evenodd;stroke:none;stroke-linecap:round;paint-order:fill markers stroke;enable-background:accumulate;stop-color:#000000;stop-opacity:1"
               d="m 94.295024,-4.164086 c -1.424377,0.061336 -2.813909,0.3621022 -4.090189,0.837675 -5.105119,1.9022914 -8.935464,6.0767717 -12.29279,10.5507774 -3.376014,4.4989096 -6.199837,9.5068836 -8.173145,13.3748946 0.07242,0.279095 0.111104,0.572513 0.111104,0.874882 v 8.159192 h 17.914669 c 1.900049,-0.542555 3.832748,-1.161681 5.721615,-1.865519 5.265787,-1.96216 10.363752,-4.443326 13.630692,-8.79688 1.63347,-2.176777 2.71165,-4.997808 2.56264,-7.994344 -0.14902,-2.9965362 -1.42913,-5.9452122 -3.57808,-8.761739 -2.14894,-2.81652695 -4.65699,-4.8310974 -7.499802,-5.7851768 -1.421403,-0.4770397 -2.882337,-0.655098 -4.306714,-0.5937622 z m 0.339514,8.4454795 c 0.433917,-0.021377 0.834742,0.045923 1.267623,0.1912028 0.865761,0.2905596 2.035918,1.0307045 3.453536,2.8887127 1.417623,1.8580082 1.808223,3.165365 1.851563,4.036963 0.0434,0.871597 -0.1637,1.532061 -0.87539,2.480469 -1.423394,1.896817 -5.253653,4.242558 -9.808192,5.939689 -4.173422,1.555119 -8.724867,2.63519 -12.523783,3.398242 1.779131,-3.387441 4.058621,-7.383827 6.697265,-10.90011 2.896437,-3.8598207 6.210675,-6.8514097 8.470801,-7.6935872 0.565031,-0.2105444 1.032659,-0.3202043 1.466577,-0.3415813 z" /><path
               id="path27"
               style="baseline-shift:baseline;display:inline;overflow:visible;opacity:1;vector-effect:none;fill:#f9f9f9;fill-rule:evenodd;stroke:none;stroke-linecap:round;paint-order:fill markers stroke;enable-background:accumulate;stop-color:#000000;stop-opacity:1"
               d="m 37.612178,-0.2387441 c -0.329772,-0.0107062 -0.661286,-0.008106 -0.994771,0.008268 -4.001827,0.19648678 -8.23765,2.3456863 -11.910385,6.4611045 -2.44849,2.7436125 -4.021081,5.4218936 -4.572331,8.2460086 -0.551251,2.824114 0.156237,5.707807 1.626774,7.847583 2.656182,3.865007 6.9694,5.851059 11.563119,7.309115 h 23.82542 v -8.159192 c 0,-0.552045 0.128406,-1.073039 0.357084,-1.53479 C 56.088729,16.758254 54.224338,13.117581 51.943603,9.7988863 49.076922,5.6275816 45.522626,1.6923817 40.511743,0.22272645 39.572202,-0.05283391 38.601494,-0.20662563 37.612178,-0.2387441 Z m -0.873849,7.4868817 c 0.560014,0.00191 1.097208,0.1053523 1.636593,0.2635498 2.157539,0.6327903 4.928723,3.1247596 7.308598,6.5877116 2.528327,3.678967 4.465913,7.898366 5.83582,11.279415 -4.14973,-0.391488 -9.44483,-1.076373 -14.572238,-2.580204 -4.42228,-1.297022 -7.931708,-3.330828 -8.925553,-4.77697 -0.496922,-0.72307 -0.618776,-1.130355 -0.431499,-2.089795 0.187277,-0.959441 0.921992,-2.557292 2.784843,-4.644677 2.794276,-3.1310768 4.683395,-4.0447507 6.363436,-4.0390304 z" /><path
               id="rect31"
               style="fill:#f9f9f9;fill-opacity:1;fill-rule:evenodd;stroke:none;stroke-width:4.03093;stroke-linecap:round;stroke-linejoin:round;stroke-dasharray:none;stroke-opacity:1;paint-order:stroke fill markers"
               d="m 61.794165,20.141408 c -1.400226,0 -2.527494,1.127268 -2.527494,2.527494 v 6.553605 c 0,0.139952 0.0114,0.277183 0.03307,0.410828 0,0 2.789107,-0.602263 4.200261,-0.602263 1.411154,0 4.20026,0.602263 4.20026,0.602263 0.02167,-0.133645 0.03307,-0.270876 0.03307,-0.410828 v -6.553605 c 0,-1.400226 -1.127268,-2.527494 -2.527494,-2.527494 z"
               sodipodi:nodetypes="ssscscssss" /></g></g></g><rect
         style="fill:#f9f9f9;fill-opacity:1;fill-rule:evenodd;stroke:none;stroke-width:5.18026;stroke-linecap:butt;stroke-linejoin:bevel;stroke-dasharray:none;stroke-opacity:1;paint-order:stroke markers fill"
         id="rect36"
         width="16.933332"
         height="86.645012"
         x="-2.1166663"
         y="205.11665"
         rx="0"
         ry="0" /><rect
         style="fill:#961bbb;fill-opacity:1;fill-rule:evenodd;stroke:none;stroke-width:5.18026;stroke-linecap:butt;stroke-linejoin:bevel;stroke-dasharray:none;stroke-opacity:1;paint-order:stroke markers fill"
         id="rect37"
         width="16.933332"
         height="86.645012"
         x="14.816669"
         y="205.11665"
         rx="0"
         ry="0" /><rect
         style="fill:#ff6439;fill-opacity:1;fill-rule:evenodd;stroke:none;stroke-width:5.18026;stroke-linecap:butt;stroke-linejoin:bevel;stroke-dasharray:none;stroke-opacity:1;paint-order:stroke markers fill"
         id="rect38"
         width="16.933332"
         height="86.645012"
         x="31.750006"
         y="205.11665"
         rx="0"
         ry="0" /></g></g></svg>
