<?xml version="1.0" encoding="UTF-8" standalone="no"?>
<!-- Created with Inkscape (http://www.inkscape.org/) -->

<svg
   width="135.46667mm"
   height="135.46667mm"
   viewBox="0 0 135.46667 135.46667"
   version="1.1"
   id="svg1"
   xml:space="preserve"
   inkscape:version="1.3.2 (091e20ef0f, 2023-11-25, custom)"
   sodipodi:docname="logo.svg"
   inkscape:export-filename="logo.png"
   inkscape:export-xdpi="96"
   inkscape:export-ydpi="96"
   xmlns:inkscape="http://www.inkscape.org/namespaces/inkscape"
   xmlns:sodipodi="http://sodipodi.sourceforge.net/DTD/sodipodi-0.dtd"
   xmlns="http://www.w3.org/2000/svg"
   xmlns:svg="http://www.w3.org/2000/svg"><sodipodi:namedview
     id="namedview1"
     pagecolor="#ffffff"
     bordercolor="#000000"
     borderopacity="0.25"
     inkscape:showpageshadow="2"
     inkscape:pageopacity="0.0"
     inkscape:pagecheckerboard="0"
     inkscape:deskcolor="#d1d1d1"
     inkscape:document-units="mm"
     inkscape:zoom="0.6916854"
     inkscape:cx="-117.82813"
     inkscape:cy="169.15205"
     inkscape:window-width="1920"
     inkscape:window-height="1008"
     inkscape:window-x="0"
     inkscape:window-y="0"
     inkscape:window-maximized="1"
     inkscape:current-layer="g615" /><defs
     id="defs1" /><g
     inkscape:label="Layer 1"
     inkscape:groupmode="layer"
     id="layer1"
     transform="translate(-39.277761,-18.545341)"><g
       id="g616"
       transform="matrix(1.3546667,0,0,1.3546667,-13.930512,-6.5774139)"><g
         id="g871"
         transform="matrix(0.88689304,0,0,0.88689304,5.1885573,1.9372551)"
         style="fill:#f2f2f2"><path
           sodipodi:type="star"
           style="fill:#f2f2f2;fill-opacity:1;stroke:none;stroke-width:2.11667;stroke-linecap:round;stroke-linejoin:round"
           id="path849"
           sodipodi:sides="4"
           sodipodi:cx="106.81874"
           sodipodi:cy="125.49354"
           sodipodi:r1="60.482967"
           sodipodi:r2="44.528648"
           sodipodi:arg1="0.78539816"
           sodipodi:arg2="1.5707963"
           inkscape:flatsided="true"
           inkscape:rounded="0.3"
           inkscape:randomized="0"
           d="m 149.58666,168.26145 c -18.14489,18.14489 -67.390945,18.14489 -85.535835,0 -18.144891,-18.14489 -18.144891,-67.39094 -10e-7,-85.535828 18.14489,-18.144891 67.390946,-18.144891 85.535836,-10e-7 18.14489,18.144889 18.14489,67.390939 0,85.535829 z"
           inkscape:transform-center-y="-2.6145327e-06"
           transform="translate(-12.005501,-50.390812)" /></g><g
         id="g615"
         transform="matrix(0.53503062,0.14336102,-0.14336102,0.53503062,61.291701,-50.354882)"><g
           id="g1"><path
             style="fill:#ffc3c3;fill-opacity:1"
             d="m 124.77923,238.00867 -3.99355,-12.70954 5.51405,-13.12862 5.82793,-12.96833 12.08416,8.19685 8.8029,5.5343 0.35086,12.49613 -0.21584,12.49593 -23.63057,12.00908 z m -55.098657,4.69187 -9.592188,-5.20451 -1.002845,-12.57341 0.254612,-13.163 11.428098,-6.4324 10.037707,-6.00699 10.239752,26.39597 -8.230844,22.70438 z"
             id="path615"
             sodipodi:nodetypes="ccccccccccccccccccc" /><path
             id="path614"
             style="fill:#ff8c8c;fill-opacity:1"
             d="m 163.69698,153.13334 -5.4436,0.0713 -8.93125,0.61388 -8.38142,21.35597 -8.15936,23.92749 4.31667,2.47387 4.43588,2.50631 -0.0191,0.18552 1.63401,1.02009 2.56057,1.62781 0.96583,0.57361 13.16228,-15.84269 11.93556,-15.74009 0.69829,-10.04354 -0.30767,-12.71872 h -4.23334 -4.23333 z m -97.811101,3.05463 11.309927,32.63124 14.725609,33.73682 7.427224,-20.48378 5.457351,-18.91792 -18.23887,-12.72915 z m 41.639421,36.68947 -1.26332,24.12795 0.7379,22.22581 7.33709,-6.47008 6.47625,-7.72776 -6.47877,-16.57779 z"
             sodipodi:nodetypes="cccccccccccccccccccccccccccccccc" /><path
             style="fill:#ff5d5d;fill-opacity:1"
             d="m 97.745932,232.69898 -5.527541,-6.70511 6.018623,-18.39788 6.368296,-13.4962 2.26794,22.73568 -1.29516,22.69576 z m 15.854818,-30.34354 -6.78396,-18.87964 39.65584,-26.1838 -25.57232,64.34938 z m -72.81358,-25.30583 0.112686,-11.13689 -0.07396,-12.65963 11.473399,0.003 9.723437,0.003 8.767754,20.93758 9.847679,24.31183 -14.843018,8.76212 z"
             id="path612"
             sodipodi:nodetypes="ccccccccccccccccccccc" /><path
             style="opacity:1;fill:#020303"
             d="m 70.691131,245.86163 c -6.766718,-3.5025 -12.541249,-6.60071 -12.832291,-6.88491 -0.515323,-0.5032 -0.529166,-0.86535 -0.529166,-13.84305 0,-15.44152 -0.433775,-13.50853 3.593962,-16.01545 2.387958,-1.48631 2.619181,-1.69787 2.283998,-2.08977 -9.218312,-10.77821 -10.171776,-12.23328 -8.83747,-13.4868 1.468607,-1.37968 1.777223,-1.14753 7.325134,5.51013 2.789078,3.34698 5.209985,6.07798 5.379796,6.06889 0.529892,-0.0284 11.421245,-7.0007 11.421245,-7.31155 0,-0.16201 -3.690937,-9.71043 -8.202083,-21.21872 l -8.202083,-20.92414 -9.723437,-0.003 -9.723437,-0.003 0.0045,10.2526 0.0045,10.2526 3.816554,4.57174 c 2.099105,2.51445 3.889609,4.80191 3.978899,5.08323 0.477415,1.5042 -1.851675,3.05549 -3.082117,2.05285 -0.580164,-0.47272 -8.041277,-9.53275 -8.395508,-10.19463 -0.625133,-1.16808 -0.392213,-24.46995 0.252793,-25.28994 l 0.54837,-0.69714 h 12.167793 12.167792 l 21.041438,14.48593 c 11.572791,7.96727 21.078177,14.48594 21.123077,14.48594 0.0449,0 9.6171,-6.51867 21.27156,-14.48594 l 21.18994,-14.48593 h 12.15579 12.15579 l 0.54837,0.69714 c 0.65443,0.83197 0.87705,24.1176 0.24203,25.31556 -0.16849,0.31786 -5.73467,7.10119 -12.36927,15.07408 -6.63461,7.97288 -12.09561,14.5896 -12.13556,14.70382 -0.0399,0.11422 1.12065,0.95038 2.57909,1.85814 1.45844,0.90775 2.77105,1.87344 2.9169,2.14597 0.37583,0.70223 0.35979,26.58206 -0.0169,27.28592 -0.38716,0.72341 -6.94081,3.93498 -7.65092,3.74928 -2.67878,-0.70051 -1.91376,-2.95186 1.60329,-4.71822 l 2.36097,-1.18576 v -11.5741 -11.5741 l -9.27392,-5.79286 c -5.40516,-3.37628 -9.36996,-5.69364 -9.50413,-5.55501 -0.12661,0.13081 -2.33719,5.55363 -4.9124,12.05071 l -4.68219,11.81287 3.50376,10.54442 c 1.92707,5.79943 3.58286,10.63245 3.67954,10.74004 0.0967,0.10758 1.81591,-0.64781 3.82051,-1.67866 3.98718,-2.05036 4.73126,-2.13305 5.42826,-0.60329 0.76255,1.67362 0.42378,1.99149 -5.28685,4.96058 -6.7531,3.51109 -5.86641,4.30893 -10.43142,-9.3862 l -3.62621,-10.8787 -0.5632,0.67719 c -2.29492,2.75937 -12.00966,13.16994 -12.4075,13.29621 -1.09006,0.34597 -1.89192,-0.35873 -7.846413,-6.89571 -3.383029,-3.71396 -6.230179,-6.75135 -6.327001,-6.74976 -0.09682,0.002 -1.783384,4.79091 -3.747916,10.64292 -1.964531,5.852 -3.780234,10.85132 -4.034895,11.10959 -0.892386,0.90504 -1.791986,0.53171 -14.221354,-5.90181 z m 15.438985,-9.12039 3.577622,-10.72929 -4.637941,-11.82644 c -2.550868,-6.50454 -4.716245,-11.9595 -4.811949,-12.12212 -0.109674,-0.18637 -3.646717,1.87466 -9.566717,5.57449 l -9.392708,5.87018 -0.06844,11.49113 -0.06844,11.49113 10.519481,5.47798 c 5.785714,3.01288 10.598678,5.48343 10.695475,5.4901 0.0968,0.007 1.785924,-4.81605 3.753617,-10.71716 z m 18.144454,-20.68998 c -0.0169,-18.60583 -0.81598,-18.57195 -0.41612,-19.51302 2.69966,-6.35372 -2.51431,7.32245 -5.101543,14.97858 l -4.704058,13.92025 5.054038,5.5804 c 2.779723,3.06921 5.083803,5.58596 5.120183,5.59277 0.0364,0.007 0.0578,-9.24474 0.0475,-20.55898 z m 13.97584,9.37446 c 0.0366,-0.17187 -2.18945,-6.97998 -4.94681,-15.12915 l -5.01339,-14.81666 -0.0141,20.5818 -0.0141,20.5818 4.96093,-5.45265 c 2.72852,-2.99897 4.9909,-5.59328 5.02751,-5.76514 z M 97.808917,201.98051 c 3.930163,-11.6391 5.943353,-17.95946 5.791313,-18.18164 -0.29673,-0.43362 -35.618352,-24.72394 -35.754376,-24.58792 -0.08551,0.0855 23.310575,59.93417 23.674973,60.56208 0.186698,0.32171 -0.154832,1.28809 6.28809,-17.79252 z m 35.178793,-12.4419 c 6.6277,-16.64492 12.01319,-30.30066 11.96777,-30.34609 -0.17348,-0.17348 -36.03589,24.50408 -36.10797,24.84654 -0.0418,0.19836 2.60738,8.32477 5.88697,18.05868 3.2796,9.73392 5.9629,17.75345 5.9629,17.82118 0,0.42972 1.41923,-3.07847 12.29033,-30.38031 z m 25.0176,1.24494 12.16163,-14.61823 0.004,-10.2526 0.004,-10.2526 -9.72343,0.001 -9.72344,10e-4 -8.44339,21.21732 c -4.64387,11.66952 -8.33481,21.25643 -8.20209,21.30423 0.13272,0.0478 2.74163,1.68097 5.79756,3.62926 3.05594,1.9483 5.648,3.55273 5.76013,3.5654 0.11214,0.0127 5.67662,-6.55515 12.36551,-14.59518 z"
             id="path611"
             sodipodi:nodetypes="cssssssssscccccssssscccssscccssssssssscccssscsssssscssscssccscssscccscsssscscssscccsssssssssscsssccccccsssscc" /></g></g></g></g></svg>
